<?xml version="1.0" standalone="no"?>
<!DOCTYPE svg PUBLIC "-//W3C//DTD SVG 20010904//EN"
 "http://www.w3.org/TR/2001/REC-SVG-20010904/DTD/svg10.dtd">
<svg version="1.0" xmlns="http://www.w3.org/2000/svg"
 width="260.000000pt" height="257.000000pt" viewBox="0 0 260.000000 257.000000"
 preserveAspectRatio="xMidYMid meet">

<g transform="translate(0.000000,257.000000) scale(0.100000,-0.100000)"
fill="#000000" stroke="none">
<path d="M1183 1996 c-84 -19 -137 -45 -208 -99 -155 -117 -228 -306 -195
-499 8 -46 15 -121 15 -168 1 -47 2 -90 3 -97 2 -11 55 -81 91 -118 15 -16 21
-42 26 -130 8 -125 22 -159 99 -238 88 -90 223 -132 356 -109 92 16 161 52
221 114 69 73 86 114 93 237 5 86 10 108 27 125 43 44 89 109 96 134 3 14 1
44 -5 67 -9 33 -8 54 3 96 55 205 9 402 -124 537 -67 68 -121 103 -207 132
-77 27 -210 34 -291 16z m197 -36 c143 -23 292 -130 353 -254 38 -77 60 -187
52 -254 -4 -29 -10 -50 -15 -47 -4 3 -16 48 -26 100 -10 52 -21 95 -25 95 -8
0 -19 -52 -19 -92 0 -16 12 -64 26 -105 16 -47 24 -86 20 -104 -3 -15 1 -51
10 -78 13 -45 13 -54 0 -80 -9 -16 -28 -39 -42 -50 -24 -19 -35 -21 -99 -15
-56 5 -78 3 -101 -9 l-29 -16 34 -1 c28 0 32 -3 26 -17 -26 -61 -36 -101 -31
-125 7 -37 -19 -59 -28 -23 -9 37 -40 29 -44 -10 -6 -50 -42 -57 -42 -9 0 40
-34 27 -38 -14 -2 -24 -8 -32 -23 -32 -14 0 -19 7 -19 30 0 23 -4 30 -20 30
-16 0 -20 -7 -20 -30 0 -23 -5 -30 -19 -30 -15 0 -21 8 -23 32 -4 45 -36 51
-44 9 -7 -34 -34 -32 -34 3 0 11 -4 27 -9 35 -13 20 -41 6 -41 -20 0 -18 -2
-19 -15 -9 -10 8 -15 30 -15 64 0 30 -6 60 -15 72 -23 31 -18 44 18 44 l32 1
-29 16 c-23 12 -45 14 -103 9 l-74 -7 -41 40 c-35 36 -40 45 -34 73 4 18 11
67 15 108 5 41 18 100 30 130 11 30 20 69 21 86 0 40 -11 94 -19 94 -3 0 -14
-42 -24 -92 -10 -51 -22 -97 -26 -101 -14 -14 -24 68 -16 126 28 213 176 378
379 422 76 17 104 17 186 5z m-391 -1005 c27 -118 70 -186 87 -141 9 24 33 6
36 -27 2 -24 8 -32 23 -32 11 0 21 9 25 22 6 28 28 17 33 -17 3 -16 11 -26 25
-28 18 -3 22 2 22 22 0 19 5 26 20 26 16 0 20 -7 20 -30 0 -23 4 -30 20 -30
16 0 20 7 20 30 0 23 4 30 20 30 15 0 20 -7 20 -25 0 -18 5 -25 20 -25 15 0
20 7 20 29 0 20 6 30 20 34 16 4 20 0 20 -20 0 -20 4 -24 23 -21 16 2 23 11
25 33 5 40 20 55 33 33 6 -10 16 -18 23 -18 18 0 51 80 66 158 18 91 36 75 32
-29 -4 -145 -8 -161 -60 -225 -87 -108 -239 -157 -376 -120 -81 22 -158 75
-205 140 -32 45 -35 56 -44 157 -12 148 5 189 32 74z"/>
<path d="M985 1451 c-69 -31 -97 -99 -75 -182 44 -167 273 -144 330 34 6 20 9
50 5 66 -7 33 -48 75 -88 90 -43 17 -127 13 -172 -8z"/>
<path d="M1419 1447 c-76 -40 -86 -112 -30 -204 47 -76 177 -112 239 -66 64
48 86 149 48 221 -36 70 -170 95 -257 49z"/>
<path d="M1258 1203 c-69 -75 -78 -173 -16 -173 10 0 27 6 38 12 16 10 24 10
40 0 44 -27 80 -8 80 43 0 49 -66 145 -100 145 -9 0 -28 -12 -42 -27z"/>
</g>
</svg>
