<?xml version="1.0" standalone="no"?>
<!DOCTYPE svg PUBLIC "-//W3C//DTD SVG 20010904//EN"
 "http://www.w3.org/TR/2001/REC-SVG-20010904/DTD/svg10.dtd">
<svg version="1.0" xmlns="http://www.w3.org/2000/svg"
 width="255.000000pt" height="267.000000pt" viewBox="0 0 255.000000 267.000000"
 preserveAspectRatio="xMidYMid meet">

<g transform="translate(0.000000,267.000000) scale(0.100000,-0.100000)"
fill="#000000" stroke="none">
<path d="M999 2257 c-24 -18 -158 -202 -169 -232 -12 -33 11 -89 46 -112 20
-13 23 -21 18 -56 -5 -34 -1 -49 18 -77 39 -57 61 -59 197 -17 66 20 137 37
158 37 21 0 52 4 70 9 31 9 31 9 61 -57 45 -99 56 -168 48 -307 -4 -65 -8
-120 -9 -122 -2 -1 -22 5 -46 13 -52 18 -172 20 -230 4 -42 -11 -43 -11 -86
29 -122 112 -312 150 -466 92 -311 -119 -398 -514 -163 -748 112 -112 276
-157 433 -119 63 15 75 15 128 2 224 -56 482 -47 695 24 148 50 346 160 416
233 47 49 50 86 14 182 -17 44 -33 103 -37 130 -24 171 -120 365 -285 575 -37
47 -95 127 -129 178 -34 50 -77 104 -96 119 -18 15 -138 73 -267 130 -233 103
-284 117 -319 90z m296 -168 c127 -55 236 -106 243 -111 7 -6 46 -59 86 -118
40 -59 105 -147 144 -196 76 -97 142 -204 185 -301 29 -65 67 -201 67 -239 0
-12 14 -59 32 -104 24 -61 29 -86 22 -98 -37 -60 -309 -205 -464 -247 -168
-47 -409 -45 -605 3 -67 16 -72 16 -125 -2 -79 -26 -195 -19 -271 17 -75 36
-146 108 -183 187 -27 58 -31 75 -31 155 0 76 4 99 27 148 105 224 374 294
572 149 52 -38 120 -133 131 -183 6 -28 9 -30 38 -24 47 10 50 17 28 75 -11
29 -18 56 -16 60 8 13 88 17 149 8 75 -11 165 -57 228 -116 l49 -46 31 31 30
31 -75 58 c-42 33 -74 64 -72 71 2 6 7 72 10 145 8 158 -6 243 -60 356 -27 56
-32 78 -25 92 6 10 10 28 10 39 0 18 -6 21 -40 21 -34 0 -40 -3 -40 -21 0 -25
-53 -49 -110 -49 -23 0 -94 -16 -158 -35 -90 -27 -117 -32 -124 -23 -12 20
-12 20 58 73 36 27 70 60 75 73 5 14 19 38 31 54 l21 30 -26 25 c-30 31 -39
27 -83 -42 -18 -29 -46 -63 -62 -74 l-29 -20 -27 27 c-14 16 -26 31 -26 35 0
15 132 187 143 187 7 0 116 -45 242 -101z"/>
<path d="M1545 897 c-53 -15 -101 -20 -202 -21 l-132 -1 -6 -34 c-3 -18 -3
-36 0 -40 4 -3 66 -6 138 -6 104 1 151 6 222 24 50 13 93 26 97 30 4 3 4 20 0
36 -10 37 -26 39 -117 12z"/>
</g>
</svg>
